<?xml version="1.0" encoding="UTF-8" standalone="no"?>
<svg width="512" height="512" viewBox="0 0 512 512" fill="none" xmlns="http://www.w3.org/2000/svg">
  <!-- Background Shield -->
  <path d="M256 32L32 96V256C32 379.7 120.2 480.9 256 480C391.8 480.9 480 379.7 480 256V96L256 32Z" fill="#1A237E" fill-opacity="0.9"/>
  
  <!-- Inner Shield -->
  <path d="M256 64L80 116V256C80 358.5 152.5 440.7 256 440C359.5 440.7 432 358.5 432 256V116L256 64Z" fill="#3949AB" fill-opacity="0.9"/>
  
  <!-- Lock Symbol -->
  <rect x="176" y="216" width="160" height="140" rx="16" fill="#E8EAF6"/>
  <rect x="200" y="168" width="112" height="80" rx="56" stroke="#E8EAF6" stroke-width="24" fill="none"/>
  
  <!-- Key Symbol -->
  <circle cx="256" cy="280" r="24" fill="#1A237E"/>
  <rect x="252" y="280" width="4" height="40" fill="#1A237E"/>
  <rect x="248" y="312" width="12" height="8" fill="#1A237E"/>
  
  <!-- Connection Lines -->
  <path d="M176 400C120 360 96 300 96 256" stroke="#64B5F6" stroke-width="8" stroke-dasharray="12,8"/>
  <path d="M336 400C392 360 416 300 416 256" stroke="#64B5F6" stroke-width="8" stroke-dasharray="12,8"/>
  
  <!-- AWS Symbol -->
  <path d="M256 400L226 440H286L256 400Z" fill="#FF9800"/>
  <path d="M226 440L196 400H256L226 440Z" fill="#FF9800"/>
  <path d="M286 440L316 400H256L286 440Z" fill="#FF9800"/>
  
  <!-- Zero Trust Ring -->
  <circle cx="256" cy="256" r="180" stroke="#4CAF50" stroke-width="8" stroke-dasharray="16,8" fill="none"/>
</svg>
