<?xml version="1.0" encoding="UTF-8"?>
<svg width="600" height="400" viewBox="0 0 600 400" xmlns="http://www.w3.org/2000/svg">
  <!-- Background -->
  <rect x="0" y="0" width="600" height="400" fill="#f8f9fa" rx="8" ry="8"/>
  
  <!-- Title -->
  <text x="300" y="40" font-family="Inter, sans-serif" font-size="20" font-weight="bold" text-anchor="middle" fill="#333">
    Annual Cost Comparison: Build vs. ZeroTrustKerberosLink
  </text>
  
  <!-- Legend -->
  <rect x="400" y="70" width="16" height="16" fill="#e74c3c" rx="2" ry="2"/>
  <text x="425" y="84" font-family="Inter, sans-serif" font-size="14" fill="#333">Custom Solution</text>
  
  <rect x="400" y="100" width="16" height="16" fill="#4361ee" rx="2" ry="2"/>
  <text x="425" y="114" font-family="Inter, sans-serif" font-size="14" fill="#333">ZeroTrustKerberosLink</text>
  
  <!-- Axes -->
  <line x1="80" y1="320" x2="550" y2="320" stroke="#ccc" stroke-width="2"/>
  <line x1="80" y1="100" x2="80" y2="320" stroke="#ccc" stroke-width="2"/>
  
  <!-- Y-axis labels -->
  <text x="75" y="320" font-family="Inter, sans-serif" font-size="12" text-anchor="end" fill="#666">$0</text>
  <text x="75" y="265" font-family="Inter, sans-serif" font-size="12" text-anchor="end" fill="#666">$200K</text>
  <text x="75" y="210" font-family="Inter, sans-serif" font-size="12" text-anchor="end" fill="#666">$400K</text>
  <text x="75" y="155" font-family="Inter, sans-serif" font-size="12" text-anchor="end" fill="#666">$600K</text>
  <text x="75" y="100" font-family="Inter, sans-serif" font-size="12" text-anchor="end" fill="#666">$800K</text>
  
  <!-- X-axis labels -->
  <text x="150" y="340" font-family="Inter, sans-serif" font-size="12" text-anchor="middle" fill="#666">Year 1</text>
  <text x="260" y="340" font-family="Inter, sans-serif" font-size="12" text-anchor="middle" fill="#666">Year 2</text>
  <text x="370" y="340" font-family="Inter, sans-serif" font-size="12" text-anchor="middle" fill="#666">Year 3</text>
  <text x="480" y="340" font-family="Inter, sans-serif" font-size="12" text-anchor="middle" fill="#666">Year 4</text>
  
  <!-- Grid lines -->
  <line x1="80" y1="265" x2="550" y2="265" stroke="#eee" stroke-width="1"/>
  <line x1="80" y1="210" x2="550" y2="210" stroke="#eee" stroke-width="1"/>
  <line x1="80" y1="155" x2="550" y2="155" stroke="#eee" stroke-width="1"/>
  <line x1="80" y1="100" x2="550" y2="100" stroke="#eee" stroke-width="1"/>
  
  <!-- Custom Solution Bars -->
  <rect x="120" y="120" width="60" height="200" fill="#e74c3c" opacity="0.9" rx="4" ry="4"/>
  <rect x="230" y="170" width="60" height="150" fill="#e74c3c" opacity="0.9" rx="4" ry="4"/>
  <rect x="340" y="190" width="60" height="130" fill="#e74c3c" opacity="0.9" rx="4" ry="4"/>
  <rect x="450" y="200" width="60" height="120" fill="#e74c3c" opacity="0.9" rx="4" ry="4"/>
  
  <!-- ZeroTrustKerberosLink Bars -->
  <rect x="190" y="220" width="60" height="100" fill="#4361ee" opacity="0.9" rx="4" ry="4"/>
  <rect x="300" y="220" width="60" height="100" fill="#4361ee" opacity="0.9" rx="4" ry="4"/>
  <rect x="410" y="220" width="60" height="100" fill="#4361ee" opacity="0.9" rx="4" ry="4"/>
  <rect x="520" y="220" width="60" height="100" fill="#4361ee" opacity="0.9" rx="4" ry="4"/>
  
  <!-- Cost labels -->
  <text x="150" y="110" font-family="Inter, sans-serif" font-size="12" font-weight="bold" text-anchor="middle" fill="#fff">$700K</text>
  <text x="260" y="160" font-family="Inter, sans-serif" font-size="12" font-weight="bold" text-anchor="middle" fill="#fff">$450K</text>
  <text x="370" y="180" font-family="Inter, sans-serif" font-size="12" font-weight="bold" text-anchor="middle" fill="#fff">$380K</text>
  <text x="480" y="190" font-family="Inter, sans-serif" font-size="12" font-weight="bold" text-anchor="middle" fill="#fff">$350K</text>
  
  <text x="220" y="210" font-family="Inter, sans-serif" font-size="12" font-weight="bold" text-anchor="middle" fill="#fff">$300K</text>
  <text x="330" y="210" font-family="Inter, sans-serif" font-size="12" font-weight="bold" text-anchor="middle" fill="#fff">$300K</text>
  <text x="440" y="210" font-family="Inter, sans-serif" font-size="12" font-weight="bold" text-anchor="middle" fill="#fff">$300K</text>
  <text x="550" y="210" font-family="Inter, sans-serif" font-size="12" font-weight="bold" text-anchor="middle" fill="#fff">$300K</text>
  
  <!-- Savings annotation -->
  <path d="M 220,180 L 280,150 L 350,150" fill="none" stroke="#2ecc71" stroke-width="2" stroke-dasharray="4"/>
  <rect x="350" y="135" width="120" height="30" fill="#2ecc71" rx="15" ry="15"/>
  <text x="410" y="155" font-family="Inter, sans-serif" font-size="12" font-weight="bold" text-anchor="middle" fill="#fff">$400K+ Savings</text>
</svg>
